HIERARCHY
ROOT Hips
{
	OFFSET -3.958830 18.904000 13.208200
	CHANNELS 6 Xposition Yposition Zposition Zrotation Yrotation Xrotation 
	JOINT LHipJoint
	{
		OFFSET 0.000000 0.000000 0.000000
		CHANNELS 3 Zrotation Yrotation Xrotation
		JOINT LeftUpLeg
		{
			OFFSET 1.800000 -1.400000 0.085000
			CHANNELS 3 Zrotation Yrotation Xrotation
			JOINT LeftLeg
			{
				OFFSET 2.215000 -6.000000 0.000000
				CHANNELS 3 Zrotation Yrotation Xrotation
				JOINT LeftFoot
				{
					OFFSET 2.500000 -6.900000 0.000000
					CHANNELS 3 Zrotation Yrotation Xrotation
					JOINT LeftToeBase
					{
						OFFSET 0.200000 -0.500000 1.950000
						CHANNELS 3 Zrotation Yrotation Xrotation
						End Site
						{
							OFFSET 0.000000 0.000000 0.000000
						}
					}
				}
			}
		}
	}
	JOINT RHipJoint
	{
		OFFSET 0.000000 0.000000 0.000000
		CHANNELS 3 Zrotation Yrotation Xrotation
		JOINT RightUpLeg
		{
			OFFSET -1.800000 -1.400000 0.085000
			CHANNELS 3 Zrotation Yrotation Xrotation
			JOINT RightLeg
			{
				OFFSET -2.215000 -6.000000 0.000000
				CHANNELS 3 Zrotation Yrotation Xrotation
				JOINT RightFoot
				{
					OFFSET -2.500000 -6.900000 0.000000
					CHANNELS 3 Zrotation Yrotation Xrotation
					JOINT RightToeBase
					{
						OFFSET -0.200000 -0.500000 1.950000
						CHANNELS 3 Zrotation Yrotation Xrotation
						End Site
						{
							OFFSET 0.000000 0.000000 0.000000
						}
					}
				}
			}
		}
	}
	JOINT LowerBack
	{
		OFFSET 0.000000 0.000000 0.000000
		CHANNELS 3 Zrotation Yrotation Xrotation
		JOINT Spine
		{
			OFFSET -0.087000 1.940000 -0.288900
			CHANNELS 3 Zrotation Yrotation Xrotation
			JOINT Spine1
			{
				OFFSET 0.000000 1.950000 0.060000
				CHANNELS 3 Zrotation Yrotation Xrotation
				JOINT Neck
				{
					OFFSET 0.000000 0.000000 0.000000
					CHANNELS 3 Zrotation Yrotation Xrotation
					JOINT Neck1
					{
						OFFSET 0.000000 1.600000 0.340000
						CHANNELS 3 Zrotation Yrotation Xrotation
						JOINT Head
						{
							OFFSET 0.000000 1.667000 -0.240000
							CHANNELS 3 Zrotation Yrotation Xrotation
							End Site
							{
								OFFSET 0.000000 0.000000 0.000000
							}
						}
					}
				}
				JOINT LeftShoulder
				{
					OFFSET 0.000000 0.000000 0.000000
					CHANNELS 3 Zrotation Yrotation Xrotation
					JOINT LeftArm
					{
						OFFSET 2.700000 1.550000 -0.730000
						CHANNELS 3 Zrotation Yrotation Xrotation
						JOINT LeftForeArm
						{
							OFFSET 5.450000 0.000000 0.000000
							CHANNELS 3 Zrotation Yrotation Xrotation
							JOINT LeftHand
							{
								OFFSET 3.450000 0.000000 0.000000
								CHANNELS 3 Zrotation Yrotation Xrotation
								JOINT LeftHandIndex1
								{
									OFFSET 0.750000 0.000000 0.000000
									CHANNELS 3 Zrotation Yrotation Xrotation
									End Site
									{
										OFFSET 0.000000 0.000000 0.000000
									}
								}
							}
						}
					}
				}
				JOINT RightShoulder
				{
					OFFSET 0.000000 0.000000 0.000000
					CHANNELS 3 Zrotation Yrotation Xrotation
					JOINT RightArm
					{
						OFFSET -2.700000 1.550000 -0.730000
						CHANNELS 3 Zrotation Yrotation Xrotation
						JOINT RightForeArm
						{
							OFFSET -5.450000 0.000000 0.000000
							CHANNELS 3 Zrotation Yrotation Xrotation
							JOINT RightHand
							{
								OFFSET -3.450000 0.000000 0.000000
								CHANNELS 3 Zrotation Yrotation Xrotation
								JOINT RightHandIndex1
								{
									OFFSET -0.750000 0.000000 0.000000
									CHANNELS 3 Zrotation Yrotation Xrotation
									End Site
									{
										OFFSET 0.000000 0.000000 0.000000
									}
								}
							}
						}
					}
				}
			}
		}
	}
}
MOTION
Frames: 14
Frame Time: 0.016667
-3.098800 16.952440 -3.776510 -0.888585 13.955655 -25.077978 -14.837118 12.172635 3.557988 29.246510 2.103948 -16.473133 -6.222217 21.337903 59.322549 1.402905 12.068254 0.130959 0.698760 0.946090 0.319750 18.647448 -11.305489 2.211942 -20.549331 10.628657 -13.243814 2.128892 -12.870984 62.665270 -1.858436 -9.646610 0.841375 0.331570 -0.205410 0.072690 -4.891125 0.917280 -8.298098 33.915726 -15.531324 30.790509 -29.544125 -1.632191 22.489794 18.169174 4.942002 -19.161686 11.651214 -8.865560 80.090123 9.672960 -16.250400 -22.763130 -28.188892 -30.723089 13.602526 -40.934343 -4.542833 -5.155355 -6.975968 -11.383818 -0.996264 -2.706504 2.974291 0.629370 -0.484590 0.640140 0.210440 -7.528385 31.746419 3.560882 -15.995954 18.138545 -12.014634 -24.468712 16.441250 -4.311044 2.821720 -1.254858 0.196230 0.394560 -0.222820 0.212770 
-3.125370 16.976310 -3.727490 -0.992076 13.794091 -25.315081 -14.842969 12.247345 3.516884 29.185901 2.311559 -15.916954 -5.906810 21.419513 59.689683 1.468482 12.073214 0.129849 0.726560 1.019630 0.298240 18.635532 -11.288106 2.231600 -19.429029 10.562364 -12.559150 2.440600 -12.820709 62.448149 -1.868962 -9.633664 0.863713 0.357340 -0.207120 0.072120 -4.865232 0.808750 -8.273134 34.400251 -14.497171 29.644414 -28.637044 -1.257378 22.872618 18.363764 4.269518 -19.136902 9.686887 -7.498061 81.142251 9.471630 -16.549690 -22.522000 -27.900370 -31.047407 13.534266 -41.295817 -5.896591 -4.155664 -7.406821 -9.959516 -0.855187 -2.729328 2.978684 0.577140 -0.483520 0.647430 0.235880 -7.944361 32.578900 2.999143 -14.161115 19.529491 -11.270659 -24.245599 13.429073 -4.123231 2.888567 -1.246526 0.241400 0.389340 -0.244050 0.255680 
-3.143820 17.003640 -3.666920 -0.602107 14.420738 -25.549848 -14.835667 12.331080 3.413850 28.646220 2.263979 -14.944423 -5.848130 21.153717 59.206030 1.373928 11.991870 0.123182 0.727120 0.990050 0.325250 18.613340 -11.348198 2.231954 -20.377650 10.190942 -11.262150 3.995593 -13.659480 61.186241 -1.854258 -9.638373 0.827286 0.366540 -0.237980 0.073070 -4.870473 0.781717 -8.234321 34.002874 -13.349198 28.581991 -27.954918 -0.924278 22.795529 18.173614 4.395224 -19.322332 10.453850 -7.897317 81.876940 8.937300 -16.048260 -22.412520 -27.557351 -30.941326 13.315730 -41.649287 -5.962343 -4.021193 -8.795123 -9.897461 -0.886250 -2.744409 2.949081 0.626500 -0.491400 0.643950 0.195810 -7.810392 32.414781 3.575819 -12.762556 19.737314 -10.404544 -23.621118 12.324083 -3.829872 2.860344 -1.217785 0.209750 0.374770 -0.218480 0.204880 
-3.152670 17.039750 -3.600220 -0.459019 14.868321 -25.477083 -14.808557 12.337753 3.326516 28.591326 2.427694 -14.014885 -6.125162 20.977919 57.991795 1.330236 11.836281 0.163155 0.714800 0.951990 0.343230 18.629392 -11.456657 2.193423 -20.593962 9.811916 -10.096369 4.453642 -13.759791 60.043344 -1.829420 -9.542819 0.849666 0.339930 -0.248910 0.089110 -4.954035 0.923079 -8.183465 34.478935 -12.418100 26.695794 -27.623315 -0.739102 22.336810 17.674080 4.289329 -19.274601 10.591242 -7.682932 82.319395 8.548820 -15.201330 -21.384340 -26.223310 -30.215416 13.027515 -43.427755 -5.128487 -4.781792 -10.836231 -11.382699 -0.924563 -2.757405 2.955430 0.648440 -0.486660 0.647620 0.175530 -8.111911 31.499844 4.649214 -12.472612 19.322289 -8.889286 -21.418120 12.620329 -3.152487 2.807790 -1.171486 0.206330 0.350880 -0.206990 0.180650 
-3.138060 17.081570 -3.533360 -0.579148 15.683695 -25.246463 -14.776457 12.312142 3.219135 28.458146 2.673473 -13.495639 -6.167450 20.620359 56.659980 1.224215 11.642851 0.201154 0.666910 0.874040 0.350830 18.659768 -11.558746 2.170345 -20.925183 9.559262 -8.982932 5.103014 -14.047089 58.966692 -1.796634 -9.476887 0.865958 0.301970 -0.248110 0.084040 -5.079884 1.136035 -8.132921 35.791653 -11.427402 24.064188 -27.466510 -0.645179 21.818199 17.317168 3.811091 -18.925571 10.016194 -6.896990 81.917244 7.878550 -13.937400 -21.438370 -24.043158 -28.836734 12.620759 -46.424123 -3.977133 -6.281482 -13.415721 -14.011226 -0.996300 -2.803241 2.915951 0.689490 -0.480230 0.633410 0.123960 -9.489956 30.220046 5.536074 -10.366401 19.847882 -7.149391 -19.819742 13.266781 -2.686273 2.726108 -1.099067 0.169750 0.359320 -0.155560 0.137550 
-3.117010 17.132250 -3.450940 -0.587668 16.562610 -24.266004 -14.725465 12.234001 3.098164 28.145247 3.009589 -13.305102 -6.692198 20.142696 54.085236 1.179971 11.235839 0.326806 0.631890 0.828940 0.331920 18.719294 -11.669949 2.162471 -21.299461 9.463897 -8.605694 5.311938 -14.247658 58.634615 -1.791177 -9.495862 0.870332 0.245470 -0.244900 0.116330 -5.279484 1.468326 -8.088106 37.093113 -9.918760 20.510584 -27.062698 -0.378394 20.852177 16.412907 3.199976 -18.555366 9.049826 -6.088687 80.397792 7.473400 -12.662120 -20.306490 -21.204851 -26.845309 12.162104 -50.216131 -2.907452 -7.752928 -16.683420 -15.807382 -0.954557 -2.858844 2.943311 0.675140 -0.464220 0.637260 0.121440 -10.597139 28.566954 6.673458 -7.435570 20.796447 -5.459701 -19.585637 13.007852 -2.515501 2.715582 -1.099417 0.196400 0.309310 -0.151450 0.145160 
-3.103660 17.185020 -3.368670 -0.314442 18.044940 -23.179597 -14.705348 12.255255 3.070313 27.838654 3.009986 -13.521301 -6.874289 19.679499 52.532684 1.135030 10.954170 0.399876 0.572560 0.740170 0.302250 18.731588 -11.818224 2.034761 -21.708130 8.544913 -8.078087 4.396528 -13.483213 56.744910 -1.681108 -9.168745 0.971112 0.172370 -0.254850 0.144550 -5.400885 1.582503 -8.031831 37.007529 -8.461638 17.407766 -26.056771 -0.081518 19.521969 14.930155 2.971495 -18.695653 8.474923 -5.872625 78.140030 7.316250 -11.251500 -18.778630 -18.291025 -25.184938 12.007115 -53.881935 -1.775322 -9.082005 -18.945409 -17.172413 -0.942589 -2.914357 2.972699 0.684900 -0.450380 0.629100 0.100060 -10.924147 27.133899 8.120924 -5.497587 20.739101 -4.071426 -19.063917 12.232470 -2.144034 2.711962 -1.084035 0.201620 0.232900 -0.132110 0.127590 
-3.071240 17.244280 -3.283880 -0.244054 19.642262 -21.792694 -14.709609 12.190129 3.162036 27.495013 2.939716 -14.008645 -8.878511 20.161600 50.352937 1.143176 10.845862 0.446398 0.467340 0.583550 0.233710 18.741201 -11.770479 1.967822 -22.138566 7.940905 -7.655073 4.960928 -13.783566 55.181159 -1.605222 -9.063131 1.008760 0.065700 -0.230890 0.170590 -5.476254 1.483725 -8.041579 37.341834 -7.172703 14.156145 -25.086412 0.223717 18.019306 13.323931 2.194643 -19.065974 5.646185 -4.365933 74.470131 7.252770 -9.986890 -16.439340 -14.664230 -23.161499 11.757800 -57.850466 -0.541285 -10.619503 -22.164968 -18.510418 -0.867161 -2.978812 3.017757 0.689060 -0.423300 0.586270 0.078280 -11.873804 25.909788 9.733067 -2.545070 20.028445 -3.265332 -19.584350 12.995980 -2.140714 2.689803 -1.110749 0.185390 0.152760 -0.088130 0.112130 
-3.023890 17.284670 -3.199510 -0.107716 21.298155 -19.898097 -14.718552 12.098820 3.207707 26.840760 2.821175 -15.233484 -9.887024 20.391065 49.175710 1.099265 10.886719 0.467187 0.236570 0.263770 0.094960 18.756536 -11.643969 2.012946 -22.777277 7.636912 -7.777786 6.830499 -15.134181 54.295600 -1.514970 -9.247659 0.959593 -0.085110 -0.108730 0.185250 -5.557140 1.422743 -8.082322 37.121000 -5.555118 11.083860 -23.489606 0.603916 16.460654 11.915216 1.227658 -18.550451 2.821088 -2.853738 66.216194 6.138940 -8.109620 -13.445270 -10.039454 -19.711480 10.955563 -62.511029 0.019065 -11.922351 -25.525646 -19.958250 -0.648844 -3.160475 3.021129 0.671000 -0.323140 0.444910 0.010410 -14.038834 23.300088 10.678865 1.623176 19.947575 -2.478868 -20.330494 14.878345 -2.381091 2.609041 -1.124094 0.083000 0.111460 0.056450 0.072500 
-2.976810 17.315690 -3.117120 0.022317 23.487607 -18.103273 -14.745283 12.061013 3.251342 25.997271 2.543860 -16.727510 -10.278644 20.298846 48.424161 1.050386 10.900078 0.506799 0.021930 -0.038090 -0.047740 18.743573 -11.587702 2.001952 -23.062873 7.026572 -7.572342 7.806591 -15.842288 53.066737 -1.386480 -9.316599 0.960348 -0.218140 0.037660 0.197270 -5.604180 1.394863 -8.068393 36.060708 -3.942261 8.568576 -21.349852 0.941009 14.784022 10.387976 0.292087 -17.495743 0.608644 -1.621397 55.474393 5.794800 -6.003800 -10.592470 -5.997073 -15.812309 10.176250 -66.144223 1.149138 -12.981448 -29.279491 -21.252110 -0.155125 -3.322266 3.072489 0.626750 -0.205730 0.279190 -0.035810 -15.308816 19.913140 10.834209 6.010534 19.317172 -2.595999 -22.118166 18.341319 -3.195710 2.510407 -1.194443 -0.021480 0.067160 0.185810 0.042120 
-2.939850 17.341300 -3.054160 0.161250 25.841055 -16.833924 -14.795843 12.062969 3.189293 24.734914 2.093244 -17.997533 -9.481949 19.599993 48.414153 0.947715 10.888073 0.567433 -0.152460 -0.277250 -0.196400 18.699245 -11.628327 1.972534 -23.218498 6.309413 -7.016990 8.312634 -16.217443 51.812027 -1.253722 -9.388168 0.955426 -0.285920 0.231770 0.227200 -5.581447 1.507054 -7.947535 34.342972 -2.631923 6.935994 -18.940322 0.977053 13.771736 9.468357 -0.921514 -15.717734 -1.520097 -0.935795 42.564320 4.242820 -4.291830 -9.485550 -3.009360 -11.255681 8.839657 -67.633936 1.971141 -12.944233 -33.448483 -21.701498 0.607563 -3.513620 3.143846 0.545650 -0.053540 0.093730 -0.050050 -16.402229 15.995851 10.156138 9.273213 18.538339 -2.622676 -22.664026 21.594134 -3.808119 2.390325 -1.291437 -0.129340 0.064750 0.315910 0.035850 
-2.917410 17.365710 -3.012740 0.720453 27.626331 -15.558383 -14.867484 12.152331 3.096289 23.042117 1.579905 -18.919678 -8.493681 18.682249 48.308912 0.811060 10.771675 0.629096 -0.223200 -0.392520 -0.244080 18.622623 -11.686949 1.920084 -23.148342 5.698031 -6.870287 7.896770 -15.970210 50.963830 -1.144917 -9.350368 0.937920 -0.281810 0.350410 0.264960 -5.438534 1.478081 -7.755916 32.123015 -1.693619 6.008006 -16.789001 0.966295 12.856813 8.911165 -2.227399 -14.470919 -3.340752 -0.574107 32.266893 2.205110 -2.713260 -10.190820 -0.344687 -7.141983 7.427205 -68.245826 2.127745 -11.839838 -36.911283 -20.386915 1.066503 -3.657992 3.224729 0.478570 0.050530 -0.027110 -0.065120 -17.787042 12.882163 9.590017 12.750405 16.978198 -3.247682 -23.577211 25.925107 -4.729455 2.269961 -1.430325 -0.199740 0.063950 0.394260 0.021090 
-2.882350 17.404170 -3.000970 0.836755 28.996136 -15.572089 -14.925683 12.447782 2.911584 20.966090 1.100901 -18.906915 -6.061448 16.928211 48.575005 0.588787 10.413701 0.747288 -0.150780 -0.374510 -0.132100 18.507469 -11.842035 1.897690 -22.488214 5.310415 -5.533608 7.072019 -15.196881 49.899550 -1.102398 -9.150014 0.968436 -0.210050 0.336360 0.253010 -5.280309 1.346714 -7.568835 31.819156 -1.867665 6.812951 -16.631033 0.731122 11.553988 9.479396 -3.946321 -13.753399 -5.392033 -0.304279 24.809306 -0.195330 -1.033970 -14.501550 -0.410611 -3.181317 6.011315 -67.683316 4.399446 -12.205256 -40.022085 -20.830584 1.619997 -3.664280 3.258995 0.518240 0.037330 -0.060550 -0.069820 -18.783688 11.056168 9.308920 15.110128 16.496242 -3.674936 -24.289048 27.333278 -5.295944 2.208294 -1.539110 -0.270530 0.092460 0.380830 -0.049760 
-2.818080 17.462970 -3.000820 0.292039 29.739432 -15.692762 -14.956505 12.640491 2.860037 20.130206 0.914042 -18.669402 -5.210433 15.970398 47.798645 0.425200 10.119173 0.861787 -0.031890 -0.244150 -0.028520 18.428205 -12.018355 1.832638 -20.794427 4.887147 -4.338679 5.181912 -13.601139 48.649711 -1.041226 -8.792403 1.070482 -0.076620 0.355960 0.228920 -5.184864 1.380455 -7.424820 33.577186 -2.470739 7.208564 -18.137867 0.373097 9.752939 10.442037 -5.680014 -13.287383 -7.286998 0.315287 18.845562 -1.612180 -0.026330 -17.244170 -0.674688 1.141703 4.051039 -67.406590 6.168871 -11.563182 -40.243877 -19.060853 1.336964 -3.708456 3.232642 0.500190 0.049000 -0.082650 -0.031680 -20.603477 9.874375 9.640528 19.204022 18.042910 -2.881567 -25.205131 25.479670 -5.703242 2.203189 -1.671836 -0.313070 0.162090 0.323830 -0.066730 
